<svg width="39" height="43" viewBox="0 0 39 43" fill="none" xmlns="http://www.w3.org/2000/svg">
<path d="M15.7083 38.8824V40.8016C15.7083 41.1667 15.6056 41.452 15.4 41.6576C15.1944 41.8631 14.903 41.9659 14.5256 41.9659C14.2556 41.9659 14.0362 41.9168 13.8675 41.8186C13.6987 41.7205 13.5821 41.5824 13.5177 41.4044C13.4533 41.2265 13.441 41.0225 13.4809 40.7924L14.0976 40.6819C14.0608 40.9519 14.0776 41.1467 14.1482 41.2664C14.2188 41.386 14.3492 41.4459 14.5394 41.4459C14.7388 41.4459 14.8769 41.3845 14.9536 41.2618C15.0334 41.139 15.0732 40.9565 15.0732 40.7141V38.8824H15.7083Z" fill="#AAAAAA"/>
<path d="M18.5554 38.8824V41.9199H17.9203V38.8824H18.5554ZM16.5811 38.8824V41.9199H15.946V38.8824H16.5811ZM18.2517 40.1296V40.6405H16.2635V40.1296H18.2517Z" fill="#AAAAAA"/>
<path d="M20.1535 38.8364C20.4542 38.8364 20.7135 38.8993 20.9313 39.0251C21.1491 39.1509 21.3164 39.3304 21.4329 39.5636C21.5526 39.7967 21.6124 40.0759 21.6124 40.4012C21.6124 40.7264 21.5526 41.0056 21.4329 41.2388C21.3164 41.4719 21.1491 41.6514 20.9313 41.7772C20.7135 41.903 20.4542 41.9659 20.1535 41.9659C19.8529 41.9659 19.5921 41.903 19.3712 41.7772C19.1533 41.6514 18.9846 41.4719 18.8649 41.2388C18.7483 41.0056 18.69 40.7264 18.69 40.4012C18.69 40.0759 18.7483 39.7967 18.8649 39.5636C18.9846 39.3304 19.1533 39.1509 19.3712 39.0251C19.5921 38.8993 19.8529 38.8364 20.1535 38.8364ZM20.1535 39.3565C19.9817 39.3565 19.836 39.3964 19.7163 39.4761C19.5967 39.5559 19.5046 39.674 19.4402 39.8305C19.3788 39.9839 19.3482 40.1741 19.3482 40.4012C19.3482 40.6251 19.3788 40.8154 19.4402 40.9718C19.5046 41.1283 19.5967 41.2464 19.7163 41.3262C19.836 41.406 19.9817 41.4459 20.1535 41.4459C20.3223 41.4459 20.4665 41.406 20.5861 41.3262C20.7058 41.2464 20.7963 41.1283 20.8577 40.9718C20.9221 40.8154 20.9543 40.6251 20.9543 40.4012C20.9543 40.1741 20.9221 39.9839 20.8577 39.8305C20.7963 39.674 20.7058 39.5559 20.5861 39.4761C20.4665 39.3964 20.3223 39.3565 20.1535 39.3565Z" fill="#AAAAAA"/>
<path d="M22.2637 41.9199L21.3801 38.8824H22.0566L22.6549 41.3906L23.2624 38.8824H23.8699L24.4866 41.3906L25.0802 38.8824H25.7291L24.8455 41.9199H24.1322L23.7088 40.2631L23.5661 39.5452H23.5569L23.4143 40.2631L22.9955 41.9199H22.2637Z" fill="#AAAAAA"/>
<path d="M28.2543 41.0823C28.196 41.2786 28.1039 41.4428 27.9781 41.5747C27.8523 41.7067 27.7035 41.8048 27.5317 41.8693C27.3599 41.9337 27.1712 41.9659 26.9657 41.9659C26.665 41.9659 26.4042 41.903 26.1833 41.7772C25.9655 41.6514 25.7967 41.4719 25.6771 41.2388C25.5605 41.0056 25.5022 40.7264 25.5022 40.4012C25.5022 40.0759 25.5605 39.7967 25.6771 39.5636C25.7967 39.3304 25.9655 39.1509 26.1833 39.0251C26.4042 38.8993 26.6619 38.8364 26.9565 38.8364C27.1651 38.8364 27.3538 38.8656 27.5225 38.9239C27.6913 38.9791 27.8339 39.065 27.9505 39.1816C28.0702 39.2982 28.1576 39.4454 28.2129 39.6234L27.6376 39.8673C27.5854 39.6832 27.5056 39.5528 27.3983 39.4761C27.2909 39.3964 27.1528 39.3565 26.9841 39.3565C26.8184 39.3565 26.6727 39.3964 26.5469 39.4761C26.4241 39.5559 26.329 39.674 26.2615 39.8305C26.194 39.9839 26.1603 40.1741 26.1603 40.4012C26.1603 40.6251 26.191 40.8154 26.2523 40.9718C26.3168 41.1283 26.4103 41.2464 26.5331 41.3262C26.6558 41.406 26.8061 41.4459 26.9841 41.4459C27.1497 41.4459 27.2924 41.4014 27.4121 41.3124C27.5348 41.2234 27.6207 41.0884 27.6698 40.9074L28.2543 41.0823Z" fill="#AAAAAA"/>
<path d="M29.6009 38.8364C29.9016 38.8364 30.1609 38.8993 30.3787 39.0251C30.5966 39.1509 30.7638 39.3304 30.8804 39.5636C31 39.7967 31.0598 40.0759 31.0598 40.4012C31.0598 40.7264 31 41.0056 30.8804 41.2388C30.7638 41.4719 30.5966 41.6514 30.3787 41.7772C30.1609 41.903 29.9016 41.9659 29.6009 41.9659C29.3003 41.9659 29.0395 41.903 28.8186 41.7772C28.6007 41.6514 28.432 41.4719 28.3123 41.2388C28.1957 41.0056 28.1375 40.7264 28.1375 40.4012C28.1375 40.0759 28.1957 39.7967 28.3123 39.5636C28.432 39.3304 28.6007 39.1509 28.8186 39.0251C29.0395 38.8993 29.3003 38.8364 29.6009 38.8364ZM29.6009 39.3565C29.4291 39.3565 29.2834 39.3964 29.1637 39.4761C29.0441 39.5559 28.952 39.674 28.8876 39.8305C28.8262 39.9839 28.7956 40.1741 28.7956 40.4012C28.7956 40.6251 28.8262 40.8154 28.8876 40.9718C28.952 41.1283 29.0441 41.2464 29.1637 41.3262C29.2834 41.406 29.4291 41.4459 29.6009 41.4459C29.7697 41.4459 29.9139 41.406 30.0336 41.3262C30.1532 41.2464 30.2437 41.1283 30.3051 40.9718C30.3695 40.8154 30.4017 40.6251 30.4017 40.4012C30.4017 40.1741 30.3695 39.9839 30.3051 39.8305C30.2437 39.674 30.1532 39.5559 30.0336 39.4761C29.9139 39.3964 29.7697 39.3565 29.6009 39.3565Z" fill="#AAAAAA"/>
<path d="M32.3678 38.8824C32.8434 38.8824 33.2116 39.0144 33.4723 39.2782C33.7331 39.539 33.8635 39.9133 33.8635 40.4012C33.8635 40.8859 33.7331 41.2602 33.4723 41.5241C33.2116 41.788 32.8434 41.9199 32.3678 41.9199H31.1943V38.8824H32.3678ZM32.3356 41.4136C32.624 41.4136 32.8403 41.3277 32.9845 41.1559C33.1318 40.981 33.2054 40.7295 33.2054 40.4012C33.2054 40.0729 33.1318 39.8228 32.9845 39.651C32.8403 39.4761 32.624 39.3887 32.3356 39.3887H31.8294V41.4136H32.3356Z" fill="#AAAAAA"/>
<path d="M33.9958 41.9199V38.8824H36.2739V39.3933H34.6309V40.148H35.9242V40.6359H34.6309V41.409H36.3384V41.9199H33.9958Z" fill="#AAAAAA"/>
<path d="M37.511 38.8364C37.7872 38.8364 38.0296 38.884 38.2382 38.9791C38.4468 39.0742 38.6248 39.2153 38.772 39.4025L38.4177 39.8121C38.2919 39.6525 38.1538 39.536 38.0035 39.4623C37.8562 39.3856 37.6844 39.3473 37.488 39.3473C37.3592 39.3473 37.2518 39.3641 37.1659 39.3979C37.083 39.4316 37.0217 39.4761 36.9818 39.5314C36.945 39.5866 36.9266 39.6479 36.9266 39.7154C36.9266 39.7983 36.9588 39.8688 37.0232 39.9271C37.0876 39.9824 37.1981 40.0284 37.3546 40.0652L37.9206 40.1941C38.2213 40.2616 38.4361 40.3628 38.5649 40.4978C38.6969 40.6297 38.7628 40.8016 38.7628 41.0133C38.7628 41.2127 38.7107 41.3845 38.6064 41.5287C38.5021 41.6698 38.3563 41.7788 38.1692 41.8555C37.982 41.9291 37.7672 41.9659 37.5249 41.9659C37.3132 41.9659 37.1183 41.9414 36.9404 41.8923C36.7655 41.8401 36.609 41.7695 36.471 41.6806C36.3329 41.5916 36.2178 41.4888 36.1258 41.3722L36.4848 40.9442C36.5553 41.0424 36.6428 41.1298 36.7471 41.2065C36.8514 41.2833 36.9695 41.3446 37.1015 41.3906C37.2365 41.4336 37.3776 41.4551 37.5249 41.4551C37.6506 41.4551 37.7565 41.4413 37.8424 41.4136C37.9314 41.383 37.9973 41.3415 38.0403 41.2894C38.0863 41.2342 38.1093 41.1682 38.1093 41.0915C38.1093 41.0117 38.0817 40.9442 38.0265 40.889C37.9743 40.8307 37.8762 40.7862 37.732 40.7555L37.1153 40.6175C36.9373 40.5745 36.7839 40.5193 36.655 40.4518C36.5292 40.3812 36.4326 40.2922 36.3651 40.1849C36.3007 40.0744 36.2685 39.944 36.2685 39.7937C36.2685 39.6127 36.3175 39.45 36.4157 39.3058C36.5139 39.1616 36.655 39.0481 36.8391 38.9653C37.0263 38.8794 37.2503 38.8364 37.511 38.8364Z" fill="#AAAAAA"/>
<path d="M27.2498 23.2972C27.2498 24.4371 27.5043 25.4346 28.0133 26.2896C28.5223 27.1445 29.201 27.8142 30.0494 28.2987C30.9261 28.7832 31.8876 29.0254 32.934 29.0254C33.7823 29.0254 34.6024 28.8972 35.3943 28.6407C36.1861 28.3557 36.8931 27.9852 37.5152 27.5292C38.1657 27.0448 38.6606 26.489 38.9999 25.8621V31.5476C38.3212 32.1746 37.4304 32.6733 36.3275 33.0438C35.2529 33.3858 33.9944 33.5567 32.5522 33.5567C30.4878 33.5567 28.6213 33.1293 26.9528 32.2743C25.3126 31.4193 24.0117 30.2224 23.0502 28.6835C22.117 27.116 21.6504 25.3206 21.6504 23.2972C21.6504 21.2453 22.117 19.4498 23.0502 17.9109C24.0117 16.372 25.3126 15.175 26.9528 14.32C28.6213 13.4651 30.4878 13.0376 32.5522 13.0376C33.9944 13.0376 35.2529 13.2228 36.3275 13.5933C37.4304 13.9353 38.3212 14.4055 38.9999 15.004V20.6895C38.6606 20.0626 38.1515 19.5211 37.4728 19.0651C36.8224 18.5806 36.1013 18.2101 35.3094 17.9536C34.5176 17.6972 33.7258 17.5689 32.934 17.5689C31.8876 17.5689 30.9261 17.8254 30.0494 18.3384C29.201 18.8229 28.5223 19.4926 28.0133 20.3475C27.5043 21.2025 27.2498 22.1857 27.2498 23.2972Z" fill="#0072CE"/>
<path d="M11.9446 0V33.3436H6.52713L6.43007 0H11.9446ZM19.0286 21.3741C19.0286 20.0632 18.7741 19.0657 18.2651 18.3817C17.7843 17.6978 16.9642 17.3558 15.8048 17.3558C15.0412 17.3558 14.3625 17.5268 13.7686 17.8688C13.1748 18.1822 12.7223 18.6382 12.4112 19.2367C12.1001 19.8352 11.9446 20.5476 11.9446 21.3741H10.8417C10.8417 19.8067 9.84212 17.5972 10.6048 15.7093C11.1385 14.3885 12.1514 13.7055 13.0351 13.2602C13.9189 12.8149 14.5817 12.5923 16.791 12.5923C19.0004 12.5923 20.6264 13.3232 21.6162 13.8932C22.606 14.4632 23.3413 15.3181 23.822 16.4581C24.3028 17.5695 24.5432 18.9375 24.5432 20.5619V33.3436H19.0286V21.3741Z" fill="#008DFF"/>
<path d="M2.42067 36.7654C2.68003 37.0764 2.98261 37.3308 3.32842 37.5287C3.64542 37.7267 4.02004 37.8256 4.45231 37.8256C4.91339 37.8256 5.30242 37.7125 5.61942 37.4863C5.93641 37.2602 6.16695 36.9067 6.31104 36.4261C6.45513 35.9738 6.52717 35.38 6.52717 34.6449V13.4829H11.9305V35.9172C11.9305 37.3026 11.6711 38.5183 11.1524 39.5644C10.6337 40.6105 9.85559 41.4162 8.81816 41.9817C7.78073 42.5754 6.49835 42.8723 4.97102 42.8723C4.13531 42.8723 3.41488 42.7733 2.80971 42.5754C2.17572 42.3775 1.6426 42.123 1.21034 41.812C0.749256 41.501 0.34581 41.19 0 40.879L2.42067 36.7654Z" fill="#008DFF"/>
</svg>
