<svg width="32" height="36" viewBox="0 0 32 36" fill="none" xmlns="http://www.w3.org/2000/svg">
<path d="M22.3589 19.115C22.3589 20.0503 22.5677 20.8687 22.9854 21.5702C23.403 22.2717 23.9599 22.8212 24.656 23.2187C25.3753 23.6162 26.1642 23.815 27.0227 23.815C27.7188 23.815 28.3917 23.7098 29.0414 23.4993C29.6911 23.2655 30.2711 22.9615 30.7816 22.5874C31.3153 22.1899 31.7213 21.7339 31.9998 21.2195V25.8844C31.4429 26.3988 30.712 26.808 29.8071 27.112C28.9254 27.3926 27.8928 27.5329 26.7095 27.5329C25.0156 27.5329 23.4842 27.1821 22.1152 26.4807C20.7695 25.7792 19.7021 24.7971 18.9132 23.5344C18.1475 22.2483 17.7646 20.7752 17.7646 19.115C17.7646 17.4314 18.1475 15.9583 18.9132 14.6956C19.7021 13.433 20.7695 12.4509 22.1152 11.7494C23.4842 11.0479 25.0156 10.6971 26.7095 10.6971C27.8928 10.6971 28.9254 10.8491 29.8071 11.1531C30.712 11.4337 31.4429 11.8195 31.9998 12.3106V16.9755C31.7213 16.4611 31.3037 16.0168 30.7468 15.6426C30.2131 15.2451 29.6214 14.9412 28.9718 14.7307C28.3221 14.5203 27.6724 14.415 27.0227 14.415C26.1642 14.415 25.3753 14.6255 24.656 15.0464C23.9599 15.4439 23.403 15.9934 22.9854 16.6949C22.5677 17.3964 22.3589 18.2031 22.3589 19.115Z" fill="#0072CE"/>
<path d="M9.80042 0V27.3581H5.35544L5.27581 0H9.80042ZM15.6128 17.5372C15.6128 16.4616 15.404 15.6432 14.9863 15.082C14.5919 14.5208 13.919 14.2402 12.9676 14.2402C12.3412 14.2402 11.7843 14.3805 11.297 14.6611C10.8098 14.9183 10.4385 15.2925 10.1833 15.7835C9.92804 16.2746 9.80042 16.8591 9.80042 17.5372H8.8955C8.8955 16.2512 8.07536 14.4383 8.70117 12.8893C9.139 11.8056 9.97009 11.2452 10.6952 10.8799C11.4203 10.5145 11.9641 10.3318 13.7769 10.3318C15.5896 10.3318 16.9238 10.9315 17.7359 11.3992C18.548 11.8669 19.1513 12.5684 19.5457 13.5037C19.9402 14.4156 20.1374 15.538 20.1374 16.8708V27.3581H15.6128V17.5372Z" fill="#008DFF"/>
<path d="M1.98614 30.1656C2.19894 30.4208 2.4472 30.6296 2.73094 30.7919C2.99103 30.9543 3.29841 31.0355 3.65307 31.0355C4.03138 31.0355 4.35059 30.9427 4.61067 30.7572C4.87076 30.5716 5.05992 30.2816 5.17814 29.8873C5.29636 29.5161 5.35548 29.0289 5.35548 28.4258V11.0626H9.78882V29.4697C9.78882 30.6064 9.57602 31.6039 9.15042 32.4622C8.72481 33.3205 8.08641 33.9816 7.23521 34.4455C6.38401 34.9327 5.33183 35.1763 4.07867 35.1763C3.39298 35.1763 2.80187 35.0951 2.30534 34.9327C1.78516 34.7703 1.34774 34.5615 0.993068 34.3064C0.614757 34.0512 0.283734 33.796 0 33.5408L1.98614 30.1656Z" fill="#008DFF"/>
</svg>
